<?xml version="1.0" encoding="UTF-8"?>
<svg xmlns="http://www.w3.org/2000/svg" xmlns:xlink="http://www.w3.org/1999/xlink" viewBox="0 0 128 128" width="128px" height="128px">
<defs>
<linearGradient id="linear0" gradientUnits="userSpaceOnUse" x1="85.704376" y1="29.5625" x2="85.704376" y2="142.4375" gradientTransform="matrix(0.744186,0,0,0.744186,0,0)">
<stop offset="0" style="stop-color:rgb(69.01961%,69.01961%,69.01961%);stop-opacity:1;"/>
<stop offset="1" style="stop-color:rgb(18.039216%,18.039216%,18.039216%);stop-opacity:1;"/>
</linearGradient>
<linearGradient id="linear1" gradientUnits="userSpaceOnUse" x1="86.295631" y1="34.9375" x2="86.295631" y2="137.0625" gradientTransform="matrix(0.744186,0,0,0.744186,0,0)">
<stop offset="0" style="stop-color:rgb(90.980393%,90.980393%,90.980393%);stop-opacity:1;"/>
<stop offset="1" style="stop-color:rgb(40.000001%,40.000001%,40.000001%);stop-opacity:1;"/>
</linearGradient>
</defs>
<g id="surface16732934">
<path style=" stroke:none;fill-rule:nonzero;fill:url(#linear0);" d="M 110.941406 30.121094 C 106.71875 24.960938 100.480469 22 93.820312 22 L 13.121094 22 L 24.320312 42.320312 L 11.558594 106 L 33.160156 106 L 45.578125 44 L 59.019531 44 L 46.601562 106 L 68.199219 106 L 80.621094 44 L 94.058594 44 L 81.621094 106 L 103.199219 106 L 115.558594 48.640625 C 116.878906 42.058594 115.199219 35.300781 110.941406 30.121094 Z M 111.640625 47.820312 L 99.980469 102 L 86.5 102 L 98.941406 40 L 77.339844 40 L 64.921875 102 L 51.480469 102 L 63.898438 40 L 42.300781 40 L 29.878906 102 L 16.441406 102 L 28.539062 41.679688 L 19.878906 26 L 93.820312 26 C 99.28125 26 104.378906 28.421875 107.839844 32.640625 C 111.339844 36.898438 112.71875 42.460938 111.640625 47.820312 Z M 111.640625 47.820312 "/>
<path style=" stroke:none;fill-rule:nonzero;fill:url(#linear1);" d="M 111.640625 47.820312 L 99.980469 102 L 86.5 102 L 98.941406 40 L 77.339844 40 L 64.921875 102 L 51.480469 102 L 63.898438 40 L 42.300781 40 L 29.878906 102 L 16.441406 102 L 28.539062 41.679688 L 19.878906 26 L 93.820312 26 C 99.28125 26 104.378906 28.421875 107.839844 32.640625 C 111.339844 36.898438 112.71875 42.460938 111.640625 47.820312 Z M 111.640625 47.820312 "/>
</g>
</svg>
